<svg width="19" height="13" viewBox="0 0 19 13" fill="none" xmlns="http://www.w3.org/2000/svg">
<path fill-rule="evenodd" clip-rule="evenodd" d="M9.01639 0C4.91803 0 1.41803 2.59167 0 6.25C1.41803 9.90833 4.91803 12.5 9.01639 12.5C13.1148 12.5 16.6148 9.90833 18.0328 6.25C16.6148 2.59167 13.1148 0 9.01639 0ZM9.01639 10.4167C6.7541 10.4167 4.91803 8.55 4.91803 6.25C4.91803 3.95 6.7541 2.08333 9.01639 2.08333C11.2787 2.08333 13.1148 3.95 13.1148 6.25C13.1148 8.55 11.2787 10.4167 9.01639 10.4167ZM9.01639 3.75C7.65574 3.75 6.55738 4.86667 6.55738 6.25C6.55738 7.63333 7.65574 8.75 9.01639 8.75C10.377 8.75 11.4754 7.63333 11.4754 6.25C11.4754 4.86667 10.377 3.75 9.01639 3.75Z" fill="white"/>
</svg>
