<svg width="229" height="17" viewBox="0 0 229 17" fill="none" xmlns="http://www.w3.org/2000/svg">
<path d="M2.616 16.144L2.808 14.584C3.528 14.52 4.056 14.424 4.392 14.296C4.728 14.168 4.944 13.936 5.04 13.6C5.152 13.248 5.208 12.728 5.208 12.04V2.416C4.552 2.448 4.032 2.496 3.648 2.56C3.264 2.624 2.968 2.76 2.76 2.968C2.568 3.176 2.424 3.488 2.328 3.904C2.232 4.304 2.152 4.856 2.088 5.56L0.12 5.704C0.168 5.16 0.208 4.584 0.24 3.976C0.288 3.352 0.32 2.744 0.336 2.152C0.368 1.56 0.392 1.04 0.408 0.592L0.672 0.327999L3.048 0.592H10.536L12.96 0.327999L13.224 0.592C13.24 1.12 13.256 1.696 13.272 2.32C13.288 2.928 13.312 3.512 13.344 4.072C13.392 4.632 13.432 5.128 13.464 5.56L11.496 5.704C11.416 4.952 11.328 4.36 11.232 3.928C11.136 3.496 10.992 3.184 10.8 2.992C10.624 2.784 10.352 2.648 9.984 2.584C9.632 2.504 9.152 2.448 8.544 2.416C8.496 2.976 8.456 3.672 8.424 4.504C8.392 5.32 8.368 6.208 8.352 7.168C8.336 8.112 8.312 9.072 8.28 10.048C8.264 11.024 8.256 11.936 8.256 12.784C8.256 13.392 8.36 13.824 8.568 14.08C8.776 14.32 9.112 14.44 9.576 14.44C9.976 14.44 10.4 14.416 10.848 14.368L10.944 14.488L10.728 16.096C10.312 16.08 9.84 16.064 9.312 16.048C8.784 16.032 8.272 16.016 7.776 16C7.28 16 6.888 16 6.6 16C6.328 16 5.96 16 5.496 16C5.048 16.016 4.568 16.032 4.056 16.048C3.56 16.08 3.08 16.112 2.616 16.144ZM14.5292 16.24L14.6972 14.632C15.3692 14.536 15.8252 14.344 16.0652 14.056C16.3052 13.768 16.4252 13.272 16.4252 12.568L16.4492 3.424C16.4492 2.896 16.4012 2.552 16.3052 2.392C16.2092 2.216 16.0012 2.128 15.6812 2.128C15.5852 2.128 15.4652 2.136 15.3212 2.152C15.1772 2.152 15.0492 2.16 14.9372 2.176L14.7932 1.96L14.9852 0.519999C15.3532 0.519999 15.7932 0.527999 16.3052 0.543999C16.8172 0.559999 17.3372 0.576 17.8652 0.592C18.4092 0.592 18.8972 0.592 19.3292 0.592C20.4812 0.592 21.5132 0.584 22.4252 0.568C23.3372 0.551999 24.1372 0.519999 24.8252 0.472C25.5292 0.423999 26.1292 0.367999 26.6252 0.303999L26.8172 0.568C26.7372 0.967999 26.6572 1.424 26.5772 1.936C26.4972 2.448 26.4332 2.968 26.3852 3.496C26.3372 4.008 26.2972 4.48 26.2652 4.912L24.1292 5.056C24.1452 4.928 24.1532 4.768 24.1532 4.576C24.1692 4.368 24.1772 4.208 24.1772 4.096C24.1772 3.76 24.1452 3.496 24.0812 3.304C24.0172 3.096 23.8812 2.944 23.6732 2.848C23.4652 2.736 23.1532 2.664 22.7372 2.632C22.3372 2.584 21.7932 2.56 21.1052 2.56C20.7212 2.56 20.4332 2.576 20.2412 2.608C20.0652 2.64 19.9532 2.712 19.9052 2.824C19.8572 2.936 19.8252 3.12 19.8092 3.376L19.5692 8.584L19.4972 12.712C19.4972 13.144 19.5292 13.464 19.5932 13.672C19.6732 13.864 19.8172 13.992 20.0252 14.056C20.2492 14.12 20.5932 14.152 21.0572 14.152C21.8092 14.152 22.4172 14.12 22.8812 14.056C23.3452 13.992 23.7052 13.872 23.9612 13.696C24.2172 13.504 24.4092 13.224 24.5372 12.856C24.6652 12.488 24.7692 12.008 24.8492 11.416L26.8172 11.248L26.9852 11.464C26.8732 12.056 26.7532 12.768 26.6252 13.6C26.5132 14.432 26.4172 15.2 26.3372 15.904L26.0972 16.168C25.2332 16.136 24.3292 16.104 23.3852 16.072C22.4572 16.056 21.5772 16.04 20.7452 16.024C19.9132 16.008 19.2092 16 18.6332 16C18.0572 16 17.3852 16.016 16.6172 16.048C15.8492 16.096 15.1532 16.16 14.5292 16.24ZM19.2572 9.328L19.4492 7.144C19.5612 7.144 19.7612 7.144 20.0492 7.144C20.3372 7.144 20.6492 7.152 20.9852 7.168C21.3212 7.168 21.6252 7.168 21.8972 7.168C22.1532 7.168 22.5612 7.144 23.1212 7.096C23.6812 7.048 24.2012 7 24.6812 6.952L24.8732 7.168L24.5372 9.208C24.1212 9.192 23.6012 9.176 22.9772 9.16C22.3532 9.144 21.8252 9.136 21.3932 9.136C21.0412 9.136 20.6652 9.16 20.2652 9.208C19.8652 9.24 19.5292 9.28 19.2572 9.328ZM28.8981 16.192L29.0901 14.608C29.7461 14.496 30.1861 14.304 30.4101 14.032C30.6341 13.76 30.7461 13.28 30.7461 12.592V3.424C30.7461 2.912 30.6901 2.568 30.5781 2.392C30.4821 2.216 30.2821 2.128 29.9781 2.128C29.8181 2.128 29.6421 2.136 29.4501 2.152C29.2581 2.168 29.1621 2.176 29.1621 2.176L29.0181 1.984L29.2101 0.568C29.3861 0.568 29.6421 0.576 29.9781 0.592C30.3301 0.592 30.7061 0.592 31.1061 0.592C31.5221 0.592 31.8981 0.592 32.2341 0.592C32.4421 0.592 32.7381 0.592 33.1221 0.592C33.5221 0.576 33.9301 0.559999 34.3461 0.543999C34.7621 0.527999 35.1141 0.519999 35.4021 0.519999C35.6901 0.503999 35.8341 0.495999 35.8341 0.495999C36.9381 0.495999 37.8581 0.623999 38.5941 0.879999C39.3301 1.12 39.9141 1.464 40.3461 1.912C40.7941 2.344 41.1141 2.832 41.3061 3.376C41.4981 3.92 41.5941 4.488 41.5941 5.08C41.5941 5.8 41.4341 6.488 41.1141 7.144C40.8101 7.8 40.3861 8.384 39.8421 8.896C39.3141 9.392 38.7061 9.792 38.0181 10.096C37.3461 10.384 36.6261 10.528 35.8581 10.528H33.8421L33.7941 12.352C33.7941 12.944 33.8181 13.392 33.8661 13.696C33.9301 14 34.0421 14.208 34.2021 14.32C34.3781 14.416 34.6181 14.464 34.9221 14.464C35.1301 14.464 35.3621 14.456 35.6181 14.44C35.8741 14.424 36.0021 14.416 36.0021 14.416L36.0741 14.536L35.8581 16.072C35.8581 16.072 35.7461 16.064 35.5221 16.048C35.2981 16.048 35.0181 16.04 34.6821 16.024C34.3621 16.024 34.0341 16.016 33.6981 16C33.3781 16 33.1061 16 32.8821 16C32.5781 16 32.2021 16.008 31.7541 16.024C31.3061 16.04 30.8661 16.056 30.4341 16.072C30.0021 16.104 29.6341 16.128 29.3301 16.144C29.0421 16.176 28.8981 16.192 28.8981 16.192ZM36.0261 8.728C37.5141 8.408 38.2581 7.312 38.2581 5.44C38.2581 4.416 37.9701 3.672 37.3941 3.208C36.8181 2.728 35.9061 2.488 34.6581 2.488C34.4341 2.488 34.2901 2.512 34.2261 2.56C34.1781 2.592 34.1461 2.704 34.1301 2.896C34.0821 3.76 34.0341 4.672 33.9861 5.632C33.9541 6.576 33.9221 7.504 33.8901 8.416L36.0261 8.728ZM42.7262 16.192L42.9182 14.608C43.5742 14.496 44.0142 14.304 44.2382 14.032C44.4622 13.76 44.5742 13.28 44.5742 12.592V3.424C44.5742 2.912 44.5182 2.568 44.4062 2.392C44.3102 2.216 44.1102 2.128 43.8062 2.128C43.6462 2.128 43.4702 2.136 43.2782 2.152C43.0862 2.168 42.9902 2.176 42.9902 2.176L42.8462 1.984L43.0382 0.568C43.2142 0.568 43.4702 0.576 43.8062 0.592C44.1582 0.592 44.5342 0.592 44.9342 0.592C45.3502 0.592 45.7262 0.592 46.0622 0.592C46.2702 0.592 46.5662 0.592 46.9502 0.592C47.3502 0.576 47.7582 0.559999 48.1742 0.543999C48.5902 0.527999 48.9422 0.519999 49.2302 0.519999C49.5182 0.503999 49.6622 0.495999 49.6622 0.495999C50.7662 0.495999 51.6862 0.623999 52.4222 0.879999C53.1582 1.12 53.7422 1.464 54.1742 1.912C54.6222 2.344 54.9422 2.832 55.1342 3.376C55.3262 3.92 55.4222 4.488 55.4222 5.08C55.4222 5.8 55.2622 6.488 54.9422 7.144C54.6382 7.8 54.2142 8.384 53.6702 8.896C53.1422 9.392 52.5342 9.792 51.8462 10.096C51.1742 10.384 50.4542 10.528 49.6862 10.528H47.6702L47.6222 12.352C47.6222 12.944 47.6462 13.392 47.6942 13.696C47.7582 14 47.8702 14.208 48.0302 14.32C48.2062 14.416 48.4462 14.464 48.7502 14.464C48.9582 14.464 49.1902 14.456 49.4462 14.44C49.7022 14.424 49.8302 14.416 49.8302 14.416L49.9022 14.536L49.6862 16.072C49.6862 16.072 49.5742 16.064 49.3502 16.048C49.1262 16.048 48.8462 16.04 48.5102 16.024C48.1902 16.024 47.8622 16.016 47.5262 16C47.2062 16 46.9342 16 46.7102 16C46.4062 16 46.0302 16.008 45.5822 16.024C45.1342 16.04 44.6942 16.056 44.2622 16.072C43.8302 16.104 43.4622 16.128 43.1582 16.144C42.8702 16.176 42.7262 16.192 42.7262 16.192ZM49.8542 8.728C51.3422 8.408 52.0862 7.312 52.0862 5.44C52.0862 4.416 51.7982 3.672 51.2222 3.208C50.6462 2.728 49.7342 2.488 48.4862 2.488C48.2622 2.488 48.1182 2.512 48.0542 2.56C48.0062 2.592 47.9742 2.704 47.9582 2.896C47.9102 3.76 47.8622 4.672 47.8142 5.632C47.7822 6.576 47.7502 7.504 47.7182 8.416L49.8542 8.728ZM60.9943 13.912L59.6503 12.424C61.1543 10.84 62.6263 9.208 64.0663 7.528C65.5223 5.848 66.9543 4.128 68.3623 2.368L69.7303 3.832C68.2103 5.464 66.7223 7.12 65.2663 8.8C63.8103 10.464 62.3863 12.168 60.9943 13.912ZM56.5063 16.216L56.6743 14.68C57.3783 14.552 57.8423 14.352 58.0663 14.08C58.2903 13.808 58.4103 13.336 58.4263 12.664V3.376C58.4263 2.88 58.3703 2.552 58.2583 2.392C58.1463 2.216 57.9143 2.128 57.5623 2.128C57.4183 2.128 57.2583 2.136 57.0823 2.152C56.9063 2.152 56.8183 2.152 56.8183 2.152L56.6983 1.96L56.8663 0.568C56.8663 0.568 56.9623 0.568 57.1543 0.568C57.3623 0.568 57.6183 0.576 57.9223 0.592C58.2423 0.592 58.5623 0.592 58.8823 0.592C59.2183 0.592 59.5063 0.592 59.7463 0.592C60.0503 0.592 60.4023 0.584 60.8023 0.568C61.2023 0.551999 61.5943 0.535999 61.9783 0.519999C62.3623 0.503999 62.6823 0.487999 62.9383 0.472C63.1943 0.439999 63.3223 0.423999 63.3223 0.423999L63.1783 2.008C62.7623 2.072 62.4583 2.16 62.2663 2.272C62.0743 2.368 61.9463 2.528 61.8823 2.752C61.8183 2.976 61.7703 3.304 61.7383 3.736C61.7063 4.408 61.6663 5.144 61.6183 5.944C61.5863 6.744 61.5543 7.56 61.5223 8.392C61.5063 9.224 61.4903 10.024 61.4743 10.792C61.4743 11.56 61.4743 12.24 61.4743 12.832C61.4743 13.488 61.5383 13.928 61.6663 14.152C61.7943 14.376 62.0423 14.488 62.4103 14.488C62.6503 14.488 62.8583 14.48 63.0343 14.464C63.2103 14.432 63.2983 14.416 63.2983 14.416L63.4183 14.56L63.2023 16.072C63.2023 16.072 63.0983 16.064 62.8903 16.048C62.6823 16.048 62.4183 16.04 62.0983 16.024C61.7943 16.024 61.4743 16.016 61.1383 16C60.8183 16 60.5463 16 60.3223 16C59.9543 16 59.5543 16.008 59.1223 16.024C58.6903 16.04 58.2743 16.056 57.8743 16.072C57.4743 16.104 57.1463 16.128 56.8903 16.144C56.6343 16.176 56.5063 16.2 56.5063 16.216ZM72.5143 16.072C72.5143 16.072 72.3303 16.064 71.9623 16.048C71.5943 16.032 71.1383 16.016 70.5943 16C70.0503 16 69.5303 16 69.0343 16C68.7943 16 68.4903 16 68.1223 16C67.7543 16.016 67.3863 16.024 67.0183 16.024C66.6503 16.024 66.3383 16.024 66.0823 16.024C65.8423 16.04 65.7223 16.048 65.7223 16.048L65.9143 14.512C66.3783 14.496 66.7303 14.424 66.9703 14.296C67.2263 14.168 67.4023 13.944 67.4983 13.624C67.5943 13.304 67.6423 12.856 67.6423 12.28L67.6663 3.376C67.6663 2.88 67.6103 2.552 67.4983 2.392C67.3863 2.216 67.1543 2.128 66.8023 2.128C66.6583 2.128 66.4903 2.136 66.2983 2.152C66.1223 2.152 66.0343 2.152 66.0343 2.152L65.9143 1.96L66.1063 0.568C66.1063 0.568 66.2103 0.568 66.4183 0.568C66.6423 0.568 66.9143 0.576 67.2343 0.592C67.5703 0.592 67.9063 0.592 68.2423 0.592C68.5943 0.592 68.8983 0.592 69.1543 0.592C69.4263 0.592 69.7543 0.584 70.1383 0.568C70.5383 0.551999 70.9303 0.535999 71.3143 0.519999C71.6983 0.503999 72.0103 0.487999 72.2503 0.472C72.5063 0.439999 72.6343 0.423999 72.6343 0.423999L72.5143 1.984C71.9223 2.064 71.5303 2.192 71.3383 2.368C71.1463 2.528 71.0343 2.84 71.0023 3.304C70.9703 4.008 70.9303 4.784 70.8823 5.632C70.8503 6.464 70.8183 7.32 70.7863 8.2C70.7703 9.064 70.7543 9.896 70.7383 10.696C70.7223 11.496 70.7143 12.208 70.7143 12.832C70.7143 13.456 70.7863 13.888 70.9303 14.128C71.0743 14.352 71.3383 14.464 71.7223 14.464C71.9463 14.464 72.1543 14.456 72.3463 14.44C72.5383 14.408 72.6343 14.392 72.6343 14.392L72.7303 14.56L72.5143 16.072ZM75.9519 16.144L76.1439 14.584C76.8639 14.52 77.3919 14.424 77.7279 14.296C78.0639 14.168 78.2799 13.936 78.3759 13.6C78.4879 13.248 78.5439 12.728 78.5439 12.04V2.416C77.8879 2.448 77.3679 2.496 76.9839 2.56C76.5999 2.624 76.3039 2.76 76.0959 2.968C75.9039 3.176 75.7599 3.488 75.6639 3.904C75.5679 4.304 75.4879 4.856 75.4239 5.56L73.4559 5.704C73.5039 5.16 73.5439 4.584 73.5759 3.976C73.6239 3.352 73.6559 2.744 73.6719 2.152C73.7039 1.56 73.7279 1.04 73.7439 0.592L74.0079 0.327999L76.3839 0.592H83.8719L86.2959 0.327999L86.5599 0.592C86.5759 1.12 86.5919 1.696 86.6079 2.32C86.6239 2.928 86.6479 3.512 86.6799 4.072C86.7279 4.632 86.7679 5.128 86.7999 5.56L84.8319 5.704C84.7519 4.952 84.6639 4.36 84.5679 3.928C84.4719 3.496 84.3279 3.184 84.1359 2.992C83.9599 2.784 83.6879 2.648 83.3199 2.584C82.9679 2.504 82.4879 2.448 81.8799 2.416C81.8319 2.976 81.7919 3.672 81.7599 4.504C81.7279 5.32 81.7039 6.208 81.6879 7.168C81.6719 8.112 81.6479 9.072 81.6159 10.048C81.5999 11.024 81.5919 11.936 81.5919 12.784C81.5919 13.392 81.6959 13.824 81.9039 14.08C82.1119 14.32 82.4479 14.44 82.9119 14.44C83.3119 14.44 83.7359 14.416 84.1839 14.368L84.2799 14.488L84.0639 16.096C83.6479 16.08 83.1759 16.064 82.6479 16.048C82.1199 16.032 81.6079 16.016 81.1119 16C80.6159 16 80.2239 16 79.9359 16C79.6639 16 79.2959 16 78.8319 16C78.3839 16.016 77.9039 16.032 77.3919 16.048C76.8959 16.08 76.4159 16.112 75.9519 16.144ZM94.3725 16.288C92.9645 16.288 91.7405 15.984 90.7005 15.376C89.6765 14.752 88.8845 13.872 88.3245 12.736C87.7805 11.6 87.5085 10.256 87.5085 8.704C87.5085 7.456 87.6925 6.32 88.0605 5.296C88.4285 4.256 88.9565 3.368 89.6445 2.632C90.3485 1.88 91.1805 1.304 92.1405 0.904C93.1165 0.503999 94.1965 0.303999 95.3805 0.303999C96.8365 0.303999 98.0765 0.607999 99.1005 1.216C100.141 1.824 100.941 2.688 101.501 3.808C102.061 4.928 102.341 6.264 102.341 7.816C102.341 9.096 102.149 10.256 101.765 11.296C101.381 12.32 100.837 13.208 100.133 13.96C99.4285 14.696 98.5885 15.272 97.6125 15.688C96.6365 16.088 95.5565 16.288 94.3725 16.288ZM94.9965 14.248C95.7645 14.248 96.4205 14.048 96.9645 13.648C97.5085 13.248 97.9245 12.664 98.2125 11.896C98.5165 11.112 98.6685 10.168 98.6685 9.064C98.6685 7.656 98.5085 6.472 98.1885 5.512C97.8845 4.552 97.4365 3.824 96.8445 3.328C96.2525 2.832 95.5405 2.584 94.7085 2.584C93.9565 2.584 93.3085 2.792 92.7645 3.208C92.2365 3.608 91.8285 4.192 91.5405 4.96C91.2525 5.728 91.1085 6.664 91.1085 7.768C91.1085 9.16 91.2605 10.344 91.5645 11.32C91.8845 12.28 92.3325 13.008 92.9085 13.504C93.5005 14 94.1965 14.248 94.9965 14.248ZM103.992 16.192L104.184 14.608C104.84 14.496 105.28 14.304 105.504 14.032C105.728 13.76 105.84 13.28 105.84 12.592V3.424C105.84 2.912 105.784 2.568 105.672 2.392C105.576 2.216 105.376 2.128 105.072 2.128C104.912 2.128 104.736 2.136 104.544 2.152C104.352 2.168 104.256 2.176 104.256 2.176L104.112 1.984L104.304 0.568C104.48 0.568 104.736 0.576 105.072 0.592C105.424 0.592 105.8 0.592 106.2 0.592C106.616 0.592 106.992 0.592 107.328 0.592C107.536 0.592 107.832 0.592 108.216 0.592C108.616 0.576 109.024 0.559999 109.44 0.543999C109.856 0.527999 110.208 0.519999 110.496 0.519999C110.784 0.503999 110.928 0.495999 110.928 0.495999C112.032 0.495999 112.952 0.623999 113.688 0.879999C114.424 1.12 115.008 1.464 115.44 1.912C115.888 2.344 116.208 2.832 116.4 3.376C116.592 3.92 116.688 4.488 116.688 5.08C116.688 5.8 116.528 6.488 116.208 7.144C115.904 7.8 115.48 8.384 114.936 8.896C114.408 9.392 113.8 9.792 113.112 10.096C112.44 10.384 111.72 10.528 110.952 10.528H108.936L108.888 12.352C108.888 12.944 108.912 13.392 108.96 13.696C109.024 14 109.136 14.208 109.296 14.32C109.472 14.416 109.712 14.464 110.016 14.464C110.224 14.464 110.456 14.456 110.712 14.44C110.968 14.424 111.096 14.416 111.096 14.416L111.168 14.536L110.952 16.072C110.952 16.072 110.84 16.064 110.616 16.048C110.392 16.048 110.112 16.04 109.776 16.024C109.456 16.024 109.128 16.016 108.792 16C108.472 16 108.2 16 107.976 16C107.672 16 107.296 16.008 106.848 16.024C106.4 16.04 105.96 16.056 105.528 16.072C105.096 16.104 104.728 16.128 104.424 16.144C104.136 16.176 103.992 16.192 103.992 16.192ZM111.12 8.728C112.608 8.408 113.352 7.312 113.352 5.44C113.352 4.416 113.064 3.672 112.488 3.208C111.912 2.728 111 2.488 109.752 2.488C109.528 2.488 109.384 2.512 109.32 2.56C109.272 2.592 109.24 2.704 109.224 2.896C109.176 3.76 109.128 4.672 109.08 5.632C109.048 6.576 109.016 7.504 108.984 8.416L111.12 8.728ZM122.26 13.912L120.916 12.424C122.42 10.84 123.892 9.208 125.332 7.528C126.788 5.848 128.22 4.128 129.628 2.368L130.996 3.832C129.476 5.464 127.988 7.12 126.532 8.8C125.076 10.464 123.652 12.168 122.26 13.912ZM117.772 16.216L117.94 14.68C118.644 14.552 119.108 14.352 119.332 14.08C119.556 13.808 119.676 13.336 119.692 12.664V3.376C119.692 2.88 119.636 2.552 119.524 2.392C119.412 2.216 119.18 2.128 118.828 2.128C118.684 2.128 118.524 2.136 118.348 2.152C118.172 2.152 118.084 2.152 118.084 2.152L117.964 1.96L118.132 0.568C118.132 0.568 118.228 0.568 118.42 0.568C118.628 0.568 118.884 0.576 119.188 0.592C119.508 0.592 119.828 0.592 120.148 0.592C120.484 0.592 120.772 0.592 121.012 0.592C121.316 0.592 121.668 0.584 122.068 0.568C122.468 0.551999 122.86 0.535999 123.244 0.519999C123.628 0.503999 123.948 0.487999 124.204 0.472C124.46 0.439999 124.588 0.423999 124.588 0.423999L124.444 2.008C124.028 2.072 123.724 2.16 123.532 2.272C123.34 2.368 123.212 2.528 123.148 2.752C123.084 2.976 123.036 3.304 123.004 3.736C122.972 4.408 122.932 5.144 122.884 5.944C122.852 6.744 122.82 7.56 122.788 8.392C122.772 9.224 122.756 10.024 122.74 10.792C122.74 11.56 122.74 12.24 122.74 12.832C122.74 13.488 122.804 13.928 122.932 14.152C123.06 14.376 123.308 14.488 123.676 14.488C123.916 14.488 124.124 14.48 124.3 14.464C124.476 14.432 124.564 14.416 124.564 14.416L124.684 14.56L124.468 16.072C124.468 16.072 124.364 16.064 124.156 16.048C123.948 16.048 123.684 16.04 123.364 16.024C123.06 16.024 122.74 16.016 122.404 16C122.084 16 121.812 16 121.588 16C121.22 16 120.82 16.008 120.388 16.024C119.956 16.04 119.54 16.056 119.14 16.072C118.74 16.104 118.412 16.128 118.156 16.144C117.9 16.176 117.772 16.2 117.772 16.216ZM133.78 16.072C133.78 16.072 133.596 16.064 133.228 16.048C132.86 16.032 132.404 16.016 131.86 16C131.316 16 130.796 16 130.3 16C130.06 16 129.756 16 129.388 16C129.02 16.016 128.652 16.024 128.284 16.024C127.916 16.024 127.604 16.024 127.348 16.024C127.108 16.04 126.988 16.048 126.988 16.048L127.18 14.512C127.644 14.496 127.996 14.424 128.236 14.296C128.492 14.168 128.668 13.944 128.764 13.624C128.86 13.304 128.908 12.856 128.908 12.28L128.932 3.376C128.932 2.88 128.876 2.552 128.764 2.392C128.652 2.216 128.42 2.128 128.068 2.128C127.924 2.128 127.756 2.136 127.564 2.152C127.388 2.152 127.3 2.152 127.3 2.152L127.18 1.96L127.372 0.568C127.372 0.568 127.476 0.568 127.684 0.568C127.908 0.568 128.18 0.576 128.5 0.592C128.836 0.592 129.172 0.592 129.508 0.592C129.86 0.592 130.164 0.592 130.42 0.592C130.692 0.592 131.02 0.584 131.404 0.568C131.804 0.551999 132.196 0.535999 132.58 0.519999C132.964 0.503999 133.276 0.487999 133.516 0.472C133.772 0.439999 133.9 0.423999 133.9 0.423999L133.78 1.984C133.188 2.064 132.796 2.192 132.604 2.368C132.412 2.528 132.3 2.84 132.268 3.304C132.236 4.008 132.196 4.784 132.148 5.632C132.116 6.464 132.084 7.32 132.052 8.2C132.036 9.064 132.02 9.896 132.004 10.696C131.988 11.496 131.98 12.208 131.98 12.832C131.98 13.456 132.052 13.888 132.196 14.128C132.34 14.352 132.604 14.464 132.988 14.464C133.212 14.464 133.42 14.456 133.612 14.44C133.804 14.408 133.9 14.392 133.9 14.392L133.996 14.56L133.78 16.072ZM137.955 16.384L135.027 16.12L134.931 15.928L135.123 14.656C135.731 14.56 136.227 14.36 136.611 14.056C137.011 13.752 137.419 13.264 137.835 12.592L138.867 10.816C139.091 10.448 139.291 10.16 139.467 9.952C139.659 9.744 139.883 9.584 140.139 9.472C140.411 9.344 140.755 9.224 141.171 9.112L141.843 9.784C140.227 9.624 138.955 9.136 138.027 8.32C137.099 7.488 136.635 6.432 136.635 5.152C136.635 4.192 136.891 3.368 137.403 2.68C137.915 1.992 138.643 1.456 139.587 1.072C140.547 0.687999 141.675 0.495999 142.971 0.495999C143.483 0.495999 143.995 0.511999 144.507 0.543999C145.035 0.575999 145.547 0.592 146.043 0.592C146.395 0.592 146.843 0.575999 147.387 0.543999C147.931 0.511999 148.555 0.471999 149.259 0.423999L149.115 2.008C148.699 2.072 148.379 2.144 148.155 2.224C147.947 2.304 147.803 2.424 147.723 2.584C147.659 2.744 147.611 2.984 147.579 3.304C147.547 3.544 147.515 3.952 147.483 4.528C147.467 5.088 147.443 5.744 147.411 6.496C147.395 7.232 147.371 7.992 147.339 8.776C147.307 9.544 147.283 10.272 147.267 10.96C147.267 11.632 147.267 12.184 147.267 12.616C147.267 13.144 147.291 13.544 147.339 13.816C147.387 14.088 147.483 14.272 147.627 14.368C147.771 14.448 147.987 14.488 148.275 14.488C148.547 14.488 148.867 14.464 149.235 14.416L149.355 14.56L149.139 16.072C148.467 16.056 147.795 16.04 147.123 16.024C146.451 16.008 145.899 16 145.467 16C144.747 16 144.099 16.016 143.523 16.048C142.963 16.096 142.547 16.152 142.275 16.216L142.443 14.68C143.147 14.536 143.611 14.336 143.835 14.08C144.075 13.808 144.195 13.336 144.195 12.664L144.219 3.616C144.219 3.168 144.091 2.856 143.835 2.68C143.595 2.488 143.179 2.392 142.587 2.392C141.739 2.392 141.091 2.608 140.643 3.04C140.195 3.472 139.971 4.104 139.971 4.936C139.971 5.704 140.163 6.376 140.547 6.952C140.947 7.512 141.515 7.92 142.251 8.176L144.987 8.344V10.216H142.371L140.451 14.152C140.067 14.936 139.675 15.504 139.275 15.856C138.891 16.208 138.451 16.384 137.955 16.384ZM158.657 16C158.321 16 157.953 16.008 157.553 16.024C157.153 16.056 156.769 16.088 156.401 16.12C156.049 16.152 155.761 16.176 155.537 16.192C155.313 16.224 155.201 16.24 155.201 16.24L155.369 14.656C156.057 14.528 156.521 14.336 156.761 14.08C157.001 13.808 157.121 13.36 157.121 12.736L157.145 3.328C157.145 2.88 157.089 2.568 156.977 2.392C156.881 2.216 156.681 2.128 156.377 2.128C156.233 2.128 156.057 2.136 155.849 2.152C155.657 2.168 155.561 2.176 155.561 2.176L155.393 1.984L155.609 0.543999C155.609 0.543999 155.737 0.551999 155.993 0.568C156.249 0.568 156.561 0.568 156.929 0.568C157.313 0.568 157.681 0.576 158.033 0.592C158.401 0.592 158.697 0.592 158.921 0.592C159.081 0.592 159.305 0.592 159.593 0.592C159.897 0.576 160.217 0.568 160.553 0.568C160.889 0.551999 161.209 0.535999 161.513 0.519999C161.817 0.503999 162.065 0.495999 162.257 0.495999C162.449 0.48 162.545 0.472 162.545 0.472C164.193 0.472 165.449 0.791999 166.313 1.432C167.177 2.056 167.609 2.976 167.609 4.192C167.609 5.024 167.369 5.744 166.889 6.352C166.409 6.96 165.785 7.464 165.017 7.864C165.673 8.024 166.249 8.264 166.745 8.584C167.257 8.904 167.665 9.304 167.969 9.784C168.273 10.248 168.425 10.8 168.425 11.44C168.425 12.4 168.161 13.24 167.633 13.96C167.121 14.68 166.401 15.24 165.473 15.64C164.545 16.04 163.457 16.24 162.209 16.24C161.985 16.24 161.713 16.224 161.393 16.192C161.089 16.176 160.769 16.152 160.433 16.12C160.113 16.088 159.793 16.056 159.473 16.024C159.169 16.008 158.897 16 158.657 16ZM160.265 9.256L160.169 12.808C160.169 13.32 160.345 13.688 160.697 13.912C161.049 14.12 161.633 14.224 162.449 14.224C163.249 14.224 163.865 14.016 164.297 13.6C164.745 13.168 164.969 12.568 164.969 11.8C164.969 10.44 164.145 9.584 162.497 9.232L160.265 9.256ZM160.313 7.168C160.313 7.168 160.409 7.176 160.601 7.192C160.793 7.208 161.025 7.24 161.297 7.288C161.569 7.32 161.825 7.344 162.065 7.36C162.321 7.376 162.505 7.384 162.617 7.384C162.617 7.384 162.697 7.344 162.857 7.264C163.033 7.184 163.233 7.048 163.457 6.856C163.681 6.648 163.873 6.384 164.033 6.064C164.209 5.728 164.297 5.304 164.297 4.792C164.297 3.976 164.025 3.376 163.481 2.992C162.937 2.608 162.089 2.416 160.937 2.416C160.777 2.416 160.665 2.448 160.601 2.512C160.553 2.56 160.521 2.68 160.505 2.872C160.473 3.304 160.441 3.792 160.409 4.336C160.393 4.864 160.377 5.376 160.361 5.872C160.345 6.368 160.329 6.8 160.313 7.168ZM182.224 16.36C181.712 16.36 181.24 16.176 180.808 15.808C180.376 15.44 179.96 14.88 179.56 14.128L176.92 9.16H173.656V6.976L178.456 7.24L178.864 6.448L182.296 12.568C182.664 13.224 183.072 13.736 183.52 14.104C183.968 14.456 184.456 14.632 184.984 14.632L185.152 14.848L184.984 16.072L182.224 16.36ZM170.248 16.072L170.464 14.56C171.168 14.464 171.624 14.296 171.832 14.056C172.056 13.816 172.168 13.352 172.168 12.664L172.192 3.376C172.192 2.864 172.128 2.528 172 2.368C171.888 2.192 171.656 2.104 171.304 2.104C171.176 2.104 171.032 2.112 170.872 2.128C170.712 2.144 170.616 2.152 170.584 2.152L170.464 1.96L170.632 0.543999C170.856 0.543999 171.176 0.551999 171.592 0.568C172.024 0.568 172.448 0.576 172.864 0.592C173.296 0.592 173.616 0.592 173.824 0.592C174.096 0.592 174.416 0.584 174.784 0.568C175.168 0.551999 175.56 0.527999 175.96 0.495999C176.376 0.464 176.76 0.44 177.112 0.423999L176.968 1.984C176.376 2.096 175.976 2.248 175.768 2.44C175.576 2.616 175.472 2.928 175.456 3.376L175.216 12.856C175.2 13.496 175.256 13.928 175.384 14.152C175.512 14.376 175.768 14.488 176.152 14.488C176.36 14.488 176.56 14.48 176.752 14.464C176.944 14.448 177.048 14.432 177.064 14.416L177.208 14.584L176.992 16.072C176.752 16.072 176.416 16.064 175.984 16.048C175.552 16.032 175.112 16.016 174.664 16C174.216 16 173.848 16 173.56 16C173.24 16 172.872 16 172.456 16C172.056 16 171.656 16.008 171.256 16.024C170.872 16.04 170.536 16.056 170.248 16.072ZM178.36 9.472L176.584 8.344L179.224 3.736C179.704 2.904 180.16 2.248 180.592 1.768C181.04 1.272 181.536 0.92 182.08 0.711999C182.624 0.487999 183.296 0.375999 184.096 0.375999C184.416 0.775999 184.64 1.24 184.768 1.768C184.896 2.296 184.96 2.84 184.96 3.4L184.648 3.712C183.96 3.536 183.392 3.48 182.944 3.544C182.496 3.608 182.112 3.792 181.792 4.096C181.472 4.4 181.152 4.816 180.832 5.344L178.36 9.472ZM192.592 13.024L187.744 4.552C187.472 4.088 187.232 3.704 187.024 3.4C186.816 3.096 186.608 2.848 186.4 2.656C186.192 2.448 185.952 2.264 185.68 2.104L185.608 1.984L185.728 0.543999C186.224 0.559999 186.672 0.576 187.072 0.592C187.472 0.592 187.8 0.592 188.056 0.592C188.232 0.592 188.472 0.584 188.776 0.568C189.096 0.551999 189.504 0.535999 190 0.519999C190.496 0.487999 191.104 0.455999 191.824 0.423999L191.968 0.639999L191.824 1.96C191.008 2.024 190.536 2.2 190.408 2.488C190.296 2.76 190.48 3.352 190.96 4.264L193.192 8.488H194.44L192.592 13.024ZM187.816 15.976C187.656 15.48 187.552 14.968 187.504 14.44C187.456 13.912 187.456 13.384 187.504 12.856L187.792 12.592C188.704 12.816 189.448 12.92 190.024 12.904C190.616 12.888 191.096 12.736 191.464 12.448C191.848 12.144 192.152 11.696 192.376 11.104L195.376 4C195.712 3.216 195.792 2.696 195.616 2.44C195.456 2.184 194.952 2.048 194.104 2.032L194.056 1.912L194.2 0.543999L196.624 0.592C197.04 0.592 197.456 0.584 197.872 0.568C198.288 0.551999 198.728 0.527999 199.192 0.495999L199.36 0.688L199.192 2.104C198.952 2.328 198.736 2.552 198.544 2.776C198.368 2.984 198.2 3.24 198.04 3.544C197.88 3.848 197.696 4.232 197.488 4.696L194.08 12.376C193.744 13.144 193.408 13.776 193.072 14.272C192.736 14.768 192.352 15.16 191.92 15.448C191.488 15.72 190.968 15.912 190.36 16.024C189.752 16.136 189 16.192 188.104 16.192L187.816 15.976ZM206.597 16.288C205.125 16.288 203.853 15.984 202.781 15.376C201.725 14.768 200.909 13.896 200.333 12.76C199.757 11.624 199.469 10.28 199.469 8.728C199.469 7.448 199.661 6.296 200.045 5.272C200.445 4.232 201.013 3.344 201.749 2.608C202.485 1.872 203.365 1.304 204.389 0.904C205.429 0.503999 206.589 0.303999 207.869 0.303999C208.365 0.303999 208.877 0.335999 209.405 0.399999C209.949 0.463999 210.445 0.535999 210.893 0.615999C211.341 0.695999 211.709 0.767999 211.997 0.831999C212.285 0.88 212.429 0.904 212.429 0.904L212.573 1.216C212.573 1.216 212.525 1.416 212.429 1.816C212.349 2.216 212.261 2.76 212.165 3.448C212.069 4.12 211.989 4.88 211.925 5.728L209.645 5.872C209.645 5.872 209.653 5.744 209.669 5.488C209.685 5.216 209.693 4.928 209.693 4.624C209.693 3.904 209.477 3.384 209.045 3.064C208.613 2.744 207.933 2.584 207.005 2.584C206.173 2.584 205.461 2.784 204.869 3.184C204.293 3.584 203.853 4.176 203.549 4.96C203.261 5.744 203.117 6.72 203.117 7.888C203.117 9.2 203.277 10.32 203.597 11.248C203.933 12.176 204.405 12.888 205.013 13.384C205.621 13.864 206.341 14.104 207.173 14.104C208.053 14.104 208.741 13.84 209.237 13.312C209.733 12.784 210.077 11.928 210.269 10.744L212.573 10.6C212.573 10.6 212.549 10.736 212.501 11.008C212.469 11.28 212.421 11.64 212.357 12.088C212.309 12.52 212.253 13 212.189 13.528C212.141 14.04 212.109 14.544 212.093 15.04L211.853 15.328C211.853 15.328 211.621 15.408 211.157 15.568C210.693 15.728 210.061 15.888 209.261 16.048C208.477 16.208 207.589 16.288 206.597 16.288ZM221.509 16.192L221.389 16L221.509 14.584C222.037 14.536 222.429 14.488 222.685 14.44C222.941 14.376 223.117 14.288 223.213 14.176C223.309 14.064 223.357 13.912 223.357 13.72C223.357 13.608 223.349 13.488 223.333 13.36C223.317 13.216 223.285 13.056 223.237 12.88L222.733 11.032C222.429 11.016 222.053 11.008 221.605 11.008C221.173 10.992 220.813 10.984 220.525 10.984C220.141 10.984 219.733 11.008 219.301 11.056C218.869 11.088 218.509 11.12 218.221 11.152L217.621 13C217.525 13.352 217.477 13.6 217.477 13.744C217.477 14.032 217.557 14.232 217.717 14.344C217.893 14.456 218.189 14.512 218.605 14.512H219.637L219.757 14.68L219.589 16.144C219.589 16.144 219.397 16.128 219.013 16.096C218.645 16.08 218.189 16.056 217.645 16.024C217.117 16.008 216.597 16 216.085 16C215.653 16 215.213 16 214.765 16C214.317 16.016 213.941 16.032 213.637 16.048C213.349 16.064 213.205 16.072 213.205 16.072L213.373 14.512C213.757 14.448 214.069 14.296 214.309 14.056C214.549 13.816 214.765 13.424 214.957 12.88L219.253 0.711999L222.925 0.327999L223.189 0.448C223.189 0.448 223.237 0.656 223.333 1.072C223.445 1.488 223.597 2.048 223.789 2.752C223.981 3.44 224.197 4.224 224.437 5.104C224.677 5.984 224.917 6.888 225.157 7.816C225.413 8.744 225.669 9.648 225.925 10.528C226.181 11.392 226.421 12.168 226.645 12.856C226.805 13.432 227.021 13.84 227.293 14.08C227.581 14.32 227.997 14.464 228.541 14.512L228.637 14.68L228.469 16.072C228.469 16.072 228.293 16.064 227.941 16.048C227.605 16.032 227.205 16.016 226.741 16C226.293 16 225.893 16 225.541 16C224.869 16 224.221 16.016 223.597 16.048C222.973 16.08 222.469 16.112 222.085 16.144C221.701 16.176 221.509 16.192 221.509 16.192ZM218.797 9.136H220.525C220.781 9.136 221.077 9.128 221.413 9.112C221.765 9.096 222.061 9.08 222.301 9.064L220.885 3.712H220.573L218.797 9.136Z" fill="#34C759"/>
</svg>
